<mxfile host="app.diagrams.net" modified="2024-06-03T13:09:59.517Z" agent="Mozilla/5.0 (Windows NT 10.0; Win64; x64) AppleWebKit/537.36 (KHTML, like Gecko) Chrome/124.0.0.0 Safari/537.36" etag="JcazaalGpJB5oesR2pvf" version="24.4.9" type="github">
  <diagram id="sQ8EXhfYu_Z4RW1TYD9f" name="Page-1">
    <mxGraphModel dx="2049" dy="1066" grid="1" gridSize="10" guides="1" tooltips="1" connect="0" arrows="1" fold="1" page="1" pageScale="1" pageWidth="827" pageHeight="1169" math="0" shadow="0">
      <root>
        <mxCell id="0" />
        <mxCell id="1" parent="0" />
        <mxCell id="wOnGFkAYj0Utu0_wV-MN-16" value="구현" style="swimlane;fillColor=#dae8fc;strokeColor=#6c8ebf;" parent="1" vertex="1">
          <mxGeometry x="270" y="50" width="859" height="950" as="geometry" />
        </mxCell>
        <mxCell id="wOnGFkAYj0Utu0_wV-MN-17" value="분석 | 논의" style="swimlane;strokeColor=#82b366;fillColor=#D5E8D4;" parent="1" vertex="1">
          <mxGeometry x="30" y="50" width="230" height="270" as="geometry" />
        </mxCell>
        <mxCell id="MTrl5ynQiznJmTlUDSWs-4" value="대기 | 요청" style="swimlane;strokeColor=#d79b00;fillColor=#ffe6cc;" parent="1" vertex="1">
          <mxGeometry x="30" y="330" width="229" height="380" as="geometry" />
        </mxCell>
        <mxCell id="hDPYIisuoytdxOGGVnbc-3" value="    폐기 | 완료" style="swimlane;strokeColor=#666666;fillColor=#f5f5f5;fontColor=#333333;align=left;" parent="1" vertex="1">
          <mxGeometry x="1420" y="50" width="610" height="940" as="geometry">
            <mxRectangle x="1130" y="50" width="90" height="23" as="alternateBounds" />
          </mxGeometry>
        </mxCell>
        <mxCell id="QOW8IyzNT6ggvtPZmbmT-4" value="지도에 낚시 바로가기 버튼 추가" style="rounded=1;whiteSpace=wrap;html=1;" vertex="1" parent="hDPYIisuoytdxOGGVnbc-3">
          <mxGeometry x="10" y="40" width="159" height="60" as="geometry" />
        </mxCell>
        <mxCell id="QOW8IyzNT6ggvtPZmbmT-5" value="월드 재화 상단 표기로 변경" style="rounded=1;whiteSpace=wrap;html=1;" vertex="1" parent="hDPYIisuoytdxOGGVnbc-3">
          <mxGeometry x="10" y="110" width="159" height="60" as="geometry" />
        </mxCell>
        <mxCell id="QOW8IyzNT6ggvtPZmbmT-3" value="낚시터 이동 팝업 추가" style="rounded=1;whiteSpace=wrap;html=1;" vertex="1" parent="hDPYIisuoytdxOGGVnbc-3">
          <mxGeometry x="10" y="180" width="159" height="60" as="geometry" />
        </mxCell>
        <mxCell id="QOW8IyzNT6ggvtPZmbmT-13" value="Item 테이블에 각 미끼 이미지 패스 변경 요청&lt;br&gt;지선님" style="rounded=1;whiteSpace=wrap;html=1;" vertex="1" parent="hDPYIisuoytdxOGGVnbc-3">
          <mxGeometry x="10" y="250" width="159" height="60" as="geometry" />
        </mxCell>
        <mxCell id="QOW8IyzNT6ggvtPZmbmT-12" value="CurrencyWidget2가 왜 필요한지 물어보기&lt;br&gt;UI팀" style="rounded=1;whiteSpace=wrap;html=1;" vertex="1" parent="hDPYIisuoytdxOGGVnbc-3">
          <mxGeometry x="10" y="320" width="159" height="60" as="geometry" />
        </mxCell>
        <mxCell id="QOW8IyzNT6ggvtPZmbmT-8" value="각 월드별 낚시 포인트 열리는 시점 확인 해야함&lt;br&gt;지선님께 요청할 것" style="rounded=1;whiteSpace=wrap;html=1;" vertex="1" parent="hDPYIisuoytdxOGGVnbc-3">
          <mxGeometry x="10" y="390" width="159" height="60" as="geometry" />
        </mxCell>
        <mxCell id="QOW8IyzNT6ggvtPZmbmT-10" value="DefaultButton에 있는 CPP_Activation_Overlay&lt;br&gt;어떻게 사용하는지 알아보기&lt;br&gt;UI팀" style="rounded=1;whiteSpace=wrap;html=1;" vertex="1" parent="hDPYIisuoytdxOGGVnbc-3">
          <mxGeometry x="10" y="460" width="159" height="60" as="geometry" />
        </mxCell>
        <mxCell id="QOW8IyzNT6ggvtPZmbmT-6" value="월드별 낚시 재화 분리" style="rounded=1;whiteSpace=wrap;html=1;" vertex="1" parent="hDPYIisuoytdxOGGVnbc-3">
          <mxGeometry x="10" y="530" width="159" height="60" as="geometry" />
        </mxCell>
        <mxCell id="QOW8IyzNT6ggvtPZmbmT-14" value="월드맵 UI에 변경된 미끼 재화 표기" style="rounded=1;whiteSpace=wrap;html=1;" vertex="1" parent="hDPYIisuoytdxOGGVnbc-3">
          <mxGeometry x="10" y="600" width="159" height="60" as="geometry" />
        </mxCell>
        <mxCell id="QOW8IyzNT6ggvtPZmbmT-7" value="특별 보상 확인 버튼 추가" style="rounded=1;whiteSpace=wrap;html=1;" vertex="1" parent="hDPYIisuoytdxOGGVnbc-3">
          <mxGeometry x="10" y="670" width="159" height="60" as="geometry" />
        </mxCell>
        <mxCell id="QOW8IyzNT6ggvtPZmbmT-1" value="낚시 타이머 날짜 기준으로 변경" style="rounded=1;whiteSpace=wrap;html=1;" vertex="1" parent="hDPYIisuoytdxOGGVnbc-3">
          <mxGeometry x="10" y="740" width="159" height="60" as="geometry" />
        </mxCell>
        <mxCell id="QOW8IyzNT6ggvtPZmbmT-2" value="낚시 소진 후 버튼 색상 변경" style="rounded=1;whiteSpace=wrap;html=1;" vertex="1" parent="hDPYIisuoytdxOGGVnbc-3">
          <mxGeometry x="10" y="810" width="159" height="60" as="geometry" />
        </mxCell>
        <mxCell id="QOW8IyzNT6ggvtPZmbmT-20" value="UI 타이밍 이슈로 인한 위젯 애니메이션 변경 요청&lt;br&gt;UI팀" style="rounded=1;whiteSpace=wrap;html=1;" vertex="1" parent="hDPYIisuoytdxOGGVnbc-3">
          <mxGeometry x="190" y="40" width="159" height="60" as="geometry" />
        </mxCell>
        <mxCell id="QOW8IyzNT6ggvtPZmbmT-11" value="이동 팝업에서 미끼 실시간 반영" style="rounded=1;whiteSpace=wrap;html=1;" vertex="1" parent="hDPYIisuoytdxOGGVnbc-3">
          <mxGeometry x="10" y="880" width="159" height="60" as="geometry" />
        </mxCell>
        <mxCell id="QOW8IyzNT6ggvtPZmbmT-22" value="" style="group" vertex="1" connectable="0" parent="hDPYIisuoytdxOGGVnbc-3">
          <mxGeometry x="190" y="110" width="220" height="120" as="geometry" />
        </mxCell>
        <mxCell id="QOW8IyzNT6ggvtPZmbmT-15" value="" style="group" vertex="1" connectable="0" parent="QOW8IyzNT6ggvtPZmbmT-22">
          <mxGeometry width="220" height="100" as="geometry" />
        </mxCell>
        <mxCell id="QOW8IyzNT6ggvtPZmbmT-16" value="모험일지" style="rounded=0;whiteSpace=wrap;html=1;" vertex="1" parent="QOW8IyzNT6ggvtPZmbmT-15">
          <mxGeometry x="100" y="80" width="120" height="20" as="geometry" />
        </mxCell>
        <mxCell id="QOW8IyzNT6ggvtPZmbmT-17" value="레드닷 추가" style="rounded=1;whiteSpace=wrap;html=1;" vertex="1" parent="QOW8IyzNT6ggvtPZmbmT-15">
          <mxGeometry width="159" height="60" as="geometry" />
        </mxCell>
        <mxCell id="QOW8IyzNT6ggvtPZmbmT-18" value="탑뷰" style="rounded=0;whiteSpace=wrap;html=1;" vertex="1" parent="QOW8IyzNT6ggvtPZmbmT-15">
          <mxGeometry x="100" y="60" width="120" height="20" as="geometry" />
        </mxCell>
        <mxCell id="QOW8IyzNT6ggvtPZmbmT-19" value="랜드마크" style="rounded=0;whiteSpace=wrap;html=1;" vertex="1" parent="QOW8IyzNT6ggvtPZmbmT-15">
          <mxGeometry x="100" y="40" width="120" height="20" as="geometry" />
        </mxCell>
        <mxCell id="QOW8IyzNT6ggvtPZmbmT-21" value="지도" style="rounded=0;whiteSpace=wrap;html=1;" vertex="1" parent="QOW8IyzNT6ggvtPZmbmT-22">
          <mxGeometry x="100" y="100" width="120" height="20" as="geometry" />
        </mxCell>
        <mxCell id="6kkVd8V_ymKgZ0_L0vxy-3" value="My Comment" style="swimlane;" parent="1" vertex="1">
          <mxGeometry x="30" y="1010" width="1710" height="260" as="geometry">
            <mxRectangle x="49" y="720" width="100" height="23" as="alternateBounds" />
          </mxGeometry>
        </mxCell>
        <mxCell id="KfCYHrgsOKh0RXw9eGPa-2" value="&lt;h1&gt;Memo&lt;/h1&gt;&lt;div&gt;&lt;br&gt;&lt;/div&gt;" style="text;html=1;strokeColor=none;fillColor=none;spacing=5;spacingTop=-20;whiteSpace=wrap;overflow=hidden;rounded=0;align=left;" parent="6kkVd8V_ymKgZ0_L0vxy-3" vertex="1">
          <mxGeometry x="1" y="20" width="1070" height="240" as="geometry" />
        </mxCell>
        <mxCell id="wOnGFkAYj0Utu0_wV-MN-18" value="고려" style="swimlane;fillColor=#e1d5e7;strokeColor=#9673a6;" parent="1" vertex="1">
          <mxGeometry x="28" y="720" width="231" height="280" as="geometry" />
        </mxCell>
        <mxCell id="oumLD8d3DvaTa1NXrWpt-27" value="Preset" style="swimlane;horizontal=0;" parent="1" vertex="1">
          <mxGeometry x="1130" y="50" width="270" height="380" as="geometry" />
        </mxCell>
        <mxCell id="oumLD8d3DvaTa1NXrWpt-32" value="" style="swimlane;fillColor=#dae8fc;strokeColor=#6c8ebf;" parent="oumLD8d3DvaTa1NXrWpt-27" vertex="1" collapsed="1">
          <mxGeometry x="31.5" y="180" width="50" height="40" as="geometry">
            <mxRectangle x="31.5" y="180" width="219.5" height="60" as="alternateBounds" />
          </mxGeometry>
        </mxCell>
        <mxCell id="oumLD8d3DvaTa1NXrWpt-34" value="" style="swimlane;" parent="oumLD8d3DvaTa1NXrWpt-27" vertex="1" collapsed="1">
          <mxGeometry x="31" y="260" width="50" height="40" as="geometry">
            <mxRectangle x="31" y="260" width="219" height="50" as="alternateBounds" />
          </mxGeometry>
        </mxCell>
        <mxCell id="Fb32EvJjGHJRLybvlaYY-3" value="Text" style="text;html=1;align=left;verticalAlign=middle;resizable=0;points=[];autosize=1;strokeColor=none;" parent="oumLD8d3DvaTa1NXrWpt-27" vertex="1">
          <mxGeometry x="220" y="20" width="40" height="20" as="geometry" />
        </mxCell>
        <mxCell id="tH88tRurDEZZYX3UZ1Wb-1" value="" style="rounded=1;whiteSpace=wrap;html=1;" parent="oumLD8d3DvaTa1NXrWpt-27" vertex="1">
          <mxGeometry x="31" y="20" width="159" height="60" as="geometry" />
        </mxCell>
        <mxCell id="8vmb4RLjWRvc2X2qJKQM-1" value="" style="rounded=1;whiteSpace=wrap;html=1;fillColor=#f8cecc;strokeColor=#b85450;" parent="oumLD8d3DvaTa1NXrWpt-27" vertex="1">
          <mxGeometry x="101" y="210" width="159" height="60" as="geometry" />
        </mxCell>
        <mxCell id="Lh-9QCx4mtw0z8OulHlL-3" value="" style="group" parent="oumLD8d3DvaTa1NXrWpt-27" vertex="1" connectable="0">
          <mxGeometry x="40" y="100" width="220" height="100" as="geometry" />
        </mxCell>
        <mxCell id="Lh-9QCx4mtw0z8OulHlL-2" value="" style="rounded=0;whiteSpace=wrap;html=1;" parent="Lh-9QCx4mtw0z8OulHlL-3" vertex="1">
          <mxGeometry x="100" y="80" width="120" height="20" as="geometry" />
        </mxCell>
        <mxCell id="oumLD8d3DvaTa1NXrWpt-28" value="" style="rounded=1;whiteSpace=wrap;html=1;" parent="Lh-9QCx4mtw0z8OulHlL-3" vertex="1">
          <mxGeometry width="159" height="60" as="geometry" />
        </mxCell>
        <mxCell id="oumLD8d3DvaTa1NXrWpt-29" value="" style="rounded=0;whiteSpace=wrap;html=1;" parent="Lh-9QCx4mtw0z8OulHlL-3" vertex="1">
          <mxGeometry x="100" y="60" width="120" height="20" as="geometry" />
        </mxCell>
        <mxCell id="oumLD8d3DvaTa1NXrWpt-30" value="" style="rounded=0;whiteSpace=wrap;html=1;" parent="Lh-9QCx4mtw0z8OulHlL-3" vertex="1">
          <mxGeometry x="100" y="40" width="120" height="20" as="geometry" />
        </mxCell>
        <mxCell id="9A0mLHsorhuxDrabdEOj-9" value="에러 | 수정" style="swimlane;fillColor=#f8cecc;strokeColor=#b85450;startSize=23;" parent="1" vertex="1">
          <mxGeometry x="1130" y="440" width="270" height="560" as="geometry">
            <mxRectangle x="620" y="440" width="90" height="23" as="alternateBounds" />
          </mxGeometry>
        </mxCell>
      </root>
    </mxGraphModel>
  </diagram>
</mxfile>
